<?xml version="1.0" encoding="utf-8"?>
<!-- Generator: Adobe Illustrator 21.0.0, SVG Export Plug-In . SVG Version: 6.00 Build 0)  -->
<svg version="1.1" id="Layer_1" xmlns="http://www.w3.org/2000/svg" xmlns:xlink="http://www.w3.org/1999/xlink" x="0px" y="0px"
	 viewBox="0 0 1389.5 515.6" style="enable-background:new 0 0 1389.5 515.6;" xml:space="preserve">
<style type="text/css">
	.st0{fill:#FFC107;}
	.st1{fill:#FFFFFF;}
</style>
<title>mainlogo</title>
<g>
	<g>
		<polygon class="st0" points="880,495.3 939.8,495.3 1030.8,395.3 971,395.3 		"/>
		<polygon class="st0" points="1053.9,304 1113.8,304 1204.8,204 1144.9,204 		"/>
		<polygon class="st0" points="989.6,120.3 929.7,120.3 853.6,204 913.5,204 		"/>
		<polygon class="st0" points="1312.1,20.3 1221.1,120.3 1280.9,120.3 1371.9,20.3 		"/>
		<polygon class="st0" points="679.6,395.3 739.5,395.3 822.5,304 762.6,304 		"/>
		<path class="st0" d="M576.6,244.6c-51.1-49.3-106.5-92.2-164.4-127.2c-34.9-21.2-87.6-48.3-141-63.2C150,20.5,65,20.5,17.5,20.5
			c42.2,5.6,114.9,19.2,158.6,33.7c51.7,17,106.1,42,141,63.2c58.1,35.1,113.4,78,164.5,127.2c32.7,31.6,80.3,82.4,107,116.2
			l42.3-59.3C613.9,282.1,595.8,263.1,576.6,244.6z"/>
	</g>
	<path class="st1" d="M989.6,120.3h231.5l91-100h-231.7h-59.8l-0.2,0.2h-81.3h-59.8L631.1,297.3l-37.9,42.3L581.7,352
		c-27.4-33.3-70-78.4-100-107.4c-51.1-49.3-106.5-92.2-164.5-127.2c-34.9-21.2-89.3-46.1-141-63.2C132.4,39.7,59.7,26.1,17.5,20.5
		c0,0,329.1,141.6,432.1,474.8h108.4l0-0.1l30.7,0l-0.1,0.1h59.9H880l91-100H739.5h-59.9l83-91.3h59.9h231.4l91-100H913.5h-59.9
		l76.1-83.7H989.6z"/>
</g>
</svg>
